# xmcd
#
# Track frame offsets:
#	150
#	2635
#	3907
#	16515
#	33215
#	34860
#	49922
#	62227
#	64087
#	77630
#	88607
#	90000
#	103629
#	117377
#	119470
#	133585
#	148075
#	150350
#	160797
#	177875
#	180087
#	195825
#
# Disc length: 2683 seconds
#
# Revision: 0
# Processed by: cddbd v1.5.1PL0 Copyright (c) Steve Scherf et al.
# Submitted via: EasyCDDAExtractor 8.1.4.1
#
DISCID=fc0a7916
DTITLE=Various Artist - Clube da Viola
DYEAR=1997
DGENRE=Sertanejo
TTITLE0=Cigano - Toque do Berrante
TTITLE1=Cigano - Locução
TTITLE2=Fred and Pedrito - Recortado Paulista
TTITLE3=Juliano César - Cowboy de Coração
TTITLE4=Bala de Prata - Locução
TTITLE5=João Pedro and Crystiano - Quem tem Saudade
TTITLE6=Luan and Leomar - Apaixonado
TTITLE7=Alex Pasquini - Locução
TTITLE8=Marcelo and Maurício - Sentimento Safenado
TTITLE9=Emílio and Eduardo - Coisa Boa é Mulher
TTITLE10=Alex Pasquini - Locução
TTITLE11=Fred and Pedrito - KM 45
TTITLE12=Jayme - Cowboy Radical
TTITLE13=Cigano - Locução
TTITLE14=João Pedro and Crystiano - Festa de Peão
TTITLE15=Dombhar and Delley - Saudade de Tião Carreiro
TTITLE16=Bala de Prata - Locução
TTITLE17=Juliano César - Peão Apaixonado
TTITLE18=Luan and Leomar - Herança Nativa
TTITLE19=Cigano - Locução
TTITLE20=Fred and Pedrito - Estradas do Interior
TTITLE21=Cigano - Oração à Nossa Senhora
EXTD=
EXTT0=
EXTT1=
EXTT2=
EXTT3=
EXTT4=
EXTT5=
EXTT6=
EXTT7=
EXTT8=
EXTT9=
EXTT10=
EXTT11=
EXTT12=
EXTT13=
EXTT14=
EXTT15=
EXTT16=
EXTT17=
EXTT18=
EXTT19=
EXTT20=
EXTT21=
PLAYORDER=
